<?xml version="1.0" encoding="utf-8"?>
<!-- Generator: Adobe Illustrator 19.0.0, SVG Export Plug-In . SVG Version: 6.00 Build 0)  -->
<svg version="1.1" id="Calque_1" xmlns="http://www.w3.org/2000/svg" xmlns:xlink="http://www.w3.org/1999/xlink" x="0px" y="0px"
	 viewBox="-935 257 48 48" style="enable-background:new -935 257 48 48;" xml:space="preserve">
<path style="fill:#FFFFFF;" d="M-911,285c3.3,0,6-2.7,6-6l0-12c0-3.3-2.7-6-6-6c-3.3,0-6,2.7-6,6v12C-917,282.3-914.3,285-911,285z
	 M-900.4,279c0,6-5.1,10.2-10.6,10.2c-5.5,0-10.6-4.2-10.6-10.2h-3.4c0,6.8,5.4,12.5,12,13.4v6.6h4v-6.6c6.6-1,12-6.6,12-13.4
	H-900.4z"/>
<path style="fill:none;" d="M-935,257h48v48h-48V257z"/>
</svg>
